HIERARCHY
ROOT newVegas:Hips
{
	OFFSET 0.000000 96.479958 0.000000
	CHANNELS 6 Xposition Yposition Zposition Xrotation Yrotation Zrotation
	JOINT newVegas:Pelvis
	{
		OFFSET 0.000000 0.000000 0.000000
		CHANNELS 3 Xrotation Yrotation Zrotation
		JOINT newVegas:LeftUpLeg
		{
			OFFSET 18.735201 -5.666702 -4.541200
			CHANNELS 3 Xrotation Yrotation Zrotation
			JOINT newVegas:LeftLeg
			{
				OFFSET -0.021200 -31.938179 0.493100
				CHANNELS 3 Xrotation Yrotation Zrotation
				JOINT newVegas:LeftFoot
				{
					OFFSET 0.021200 -31.938179 -4.336299
					CHANNELS 3 Xrotation Yrotation Zrotation
					JOINT newVegas:LeftToeBase
					{
						OFFSET 0.943001 -26.722000 15.023500
						CHANNELS 3 Xrotation Yrotation Zrotation
						End Site
						{
							OFFSET 0.000000 30.670183 0.000000
						}
					}
				}
				JOINT newVegas:Left_PantLeg
				{
					OFFSET 0.663870 -9.044666 -1.108900
					CHANNELS 3 Xrotation Yrotation Zrotation
					End Site
					{
						OFFSET 1.415995 20.635357 0.000000
					}
				}
			}
		}
		JOINT newVegas:RightUpLeg
		{
			OFFSET -18.735201 -5.666702 -4.541200
			CHANNELS 3 Xrotation Yrotation Zrotation
			JOINT newVegas:RightLeg
			{
				OFFSET 0.018946 -31.938133 0.493100
				CHANNELS 3 Xrotation Yrotation Zrotation
				JOINT newVegas:RightFoot
				{
					OFFSET -0.018946 -31.938126 -4.336299
					CHANNELS 3 Xrotation Yrotation Zrotation
					JOINT newVegas:RightToeBase
					{
						OFFSET -0.943001 -26.722004 15.023500
						CHANNELS 3 Xrotation Yrotation Zrotation
						End Site
						{
							OFFSET 0.000000 30.670187 0.000000
						}
					}
				}
				JOINT newVegas:Right_PantLeg
				{
					OFFSET -0.661674 -9.044716 -1.108900
					CHANNELS 3 Xrotation Yrotation Zrotation
					End Site
					{
						OFFSET -1.415958 20.635269 0.000000
					}
				}
			}
		}
	}
	JOINT newVegas:Spine
	{
		OFFSET 0.000000 10.199997 -0.299500
		CHANNELS 3 Xrotation Yrotation Zrotation
		JOINT newVegas:Spine1
		{
			OFFSET 0.000000 11.900002 -1.516600
			CHANNELS 3 Xrotation Yrotation Zrotation
			JOINT newVegas:Spine2
			{
				OFFSET 0.000000 13.600006 -2.842500
				CHANNELS 3 Xrotation Yrotation Zrotation
				JOINT newVegas:Neck
				{
					OFFSET 0.000000 9.624100 -2.890100
					CHANNELS 3 Xrotation Yrotation Zrotation
					JOINT newVegas:Head
					{
						OFFSET 0.000000 14.068802 -1.351900
						CHANNELS 3 Xrotation Yrotation Zrotation
						JOINT newVegas:Hair_Back
						{
							OFFSET 0.000000 3.231903 -17.524799
							CHANNELS 3 Xrotation Yrotation Zrotation
							End Site
							{
								OFFSET 0.000000 19.849884 0.000000
							}
						}
						JOINT newVegas:Hair_Front
						{
							OFFSET 0.000000 31.260406 4.573800
							CHANNELS 3 Xrotation Yrotation Zrotation
							JOINT newVegas:Hair_Front1
							{
								OFFSET 0.000000 2.284103 11.993300
								CHANNELS 3 Xrotation Yrotation Zrotation
								JOINT newVegas:Hair_Front2
								{
									OFFSET 0.000000 2.284103 11.993300
									CHANNELS 3 Xrotation Yrotation Zrotation
									End Site
									{
										OFFSET 0.000000 12.208862 0.000000
									}
								}
							}
						}
						JOINT newVegas:Jowel
						{
							OFFSET 0.000000 -7.458206 6.864100
							CHANNELS 3 Xrotation Yrotation Zrotation
							End Site
							{
								OFFSET 0.000000 19.849884 0.000000
							}
						}
					}
				}
				JOINT newVegas:LeftShoulder
				{
					OFFSET 15.263000 10.923401 -0.547700
					CHANNELS 3 Xrotation Yrotation Zrotation
					JOINT newVegas:LeftArm
					{
						OFFSET 25.438599 -2.830597 -13.032500
						CHANNELS 3 Xrotation Yrotation Zrotation
						JOINT newVegas:LeftForeArm
						{
							OFFSET 29.960503 0.000000 0.000000
							CHANNELS 3 Xrotation Yrotation Zrotation
							JOINT newVegas:LeftHand
							{
								OFFSET 27.849251 0.000000 0.000000
								CHANNELS 3 Xrotation Yrotation Zrotation
								JOINT newVegas:LeftHandThumb1
								{
									OFFSET 4.487587 -3.305161 6.305391
									CHANNELS 3 Xrotation Yrotation Zrotation
									JOINT newVegas:LeftHandThumb2
									{
										OFFSET 5.480453 -3.164139 3.164143
										CHANNELS 3 Xrotation Yrotation Zrotation
										JOINT newVegas:LeftHandThumb3
										{
											OFFSET 5.159721 -2.978973 2.978967
											CHANNELS 3 Xrotation Yrotation Zrotation
											End Site
											{
												OFFSET 2.494507 5.926697 1.738678
											}
										}
									}
								}
								JOINT newVegas:LeftHandIndex1
								{
									OFFSET 18.578728 -0.527832 5.208049
									CHANNELS 3 Xrotation Yrotation Zrotation
									JOINT newVegas:LeftHandIndex2
									{
										OFFSET 3.192009 0.000000 0.000000
										CHANNELS 3 Xrotation Yrotation Zrotation
										JOINT newVegas:LeftHandIndex3
										{
											OFFSET 3.835129 0.000000 0.000000
											CHANNELS 3 Xrotation Yrotation Zrotation
											End Site
											{
												OFFSET -0.034599 3.816971 0.371180
											}
										}
									}
								}
								JOINT newVegas:LeftHandMiddle1
								{
									OFFSET 18.476105 0.000000 0.000000
									CHANNELS 3 Xrotation Yrotation Zrotation
									JOINT newVegas:LeftHandMiddle2
									{
										OFFSET 3.324875 0.000000 0.000000
										CHANNELS 3 Xrotation Yrotation Zrotation
										JOINT newVegas:LeftHandMiddle3
										{
											OFFSET 4.596550 0.000000 0.000000
											CHANNELS 3 Xrotation Yrotation Zrotation
											End Site
											{
												OFFSET 0.057701 4.578827 0.399218
											}
										}
									}
								}
								JOINT newVegas:LeftHandRing1
								{
									OFFSET 17.732719 0.121887 -4.201567
									CHANNELS 3 Xrotation Yrotation Zrotation
									JOINT newVegas:LeftHandRing2
									{
										OFFSET 2.733170 0.000000 0.000000
										CHANNELS 3 Xrotation Yrotation Zrotation
										JOINT newVegas:LeftHandRing3
										{
											OFFSET 3.178268 0.000000 0.000000
											CHANNELS 3 Xrotation Yrotation Zrotation
											End Site
											{
												OFFSET 0.119102 3.170624 0.185394
											}
										}
									}
								}
								JOINT newVegas:LeftHandPinky1
								{
									OFFSET 15.989624 -0.606689 -7.535461
									CHANNELS 3 Xrotation Yrotation Zrotation
									JOINT newVegas:LeftHandPinky2
									{
										OFFSET 2.538986 0.000000 0.000000
										CHANNELS 3 Xrotation Yrotation Zrotation
										JOINT newVegas:LeftHandPinky3
										{
											OFFSET 2.593102 0.000000 0.000000
											CHANNELS 3 Xrotation Yrotation Zrotation
											End Site
											{
												OFFSET -0.150902 2.584198 0.152708
											}
										}
									}
								}
							}
							JOINT newVegas:Left_Sleeve
							{
								OFFSET 0.267448 -0.649796 0.577675
								CHANNELS 3 Xrotation Yrotation Zrotation
								End Site
								{
									OFFSET 0.000000 15.991241 0.000000
								}
							}
							JOINT newVegas:Left_CapeC
							{
								OFFSET 15.715958 -8.608795 -6.935905
								CHANNELS 3 Xrotation Yrotation Zrotation
								JOINT newVegas:Left_CapeC1
								{
									OFFSET 0.000000 -8.688499 0.000000
									CHANNELS 3 Xrotation Yrotation Zrotation
									End Site
									{
										OFFSET 0.000000 8.688499 0.000000
									}
								}
							}
						}
						JOINT newVegas:Left_CapeB
						{
							OFFSET 26.118385 -8.608795 -7.079235
							CHANNELS 3 Xrotation Yrotation Zrotation
							JOINT newVegas:Left_CapeB1
							{
								OFFSET 0.000000 -8.688499 0.000000
								CHANNELS 3 Xrotation Yrotation Zrotation
								End Site
								{
									OFFSET 0.000000 8.688499 0.000000
								}
							}
						}
						JOINT newVegas:Left_CapeA
						{
							OFFSET 5.115639 -8.608795 -10.395809
							CHANNELS 3 Xrotation Yrotation Zrotation
							JOINT newVegas:Left_CapeA1
							{
								OFFSET 0.000000 -8.688499 0.000000
								CHANNELS 3 Xrotation Yrotation Zrotation
								End Site
								{
									OFFSET 0.000000 8.688499 0.000000
								}
							}
						}
					}
				}
				JOINT newVegas:RightShoulder
				{
					OFFSET -15.263000 10.923401 -0.547700
					CHANNELS 3 Xrotation Yrotation Zrotation
					JOINT newVegas:RightArm
					{
						OFFSET -25.438599 -2.830597 -13.032500
						CHANNELS 3 Xrotation Yrotation Zrotation
						JOINT newVegas:RightForeArm
						{
							OFFSET -29.960503 0.000000 0.000000
							CHANNELS 3 Xrotation Yrotation Zrotation
							JOINT newVegas:RightHand
							{
								OFFSET -27.849251 0.000000 0.000000
								CHANNELS 3 Xrotation Yrotation Zrotation
								JOINT newVegas:RightHandThumb1
								{
									OFFSET -4.487587 -3.305161 6.305391
									CHANNELS 3 Xrotation Yrotation Zrotation
									JOINT newVegas:RightHandThumb2
									{
										OFFSET -5.480453 -3.164139 3.164143
										CHANNELS 3 Xrotation Yrotation Zrotation
										JOINT newVegas:RightHandThumb3
										{
											OFFSET -5.159721 -2.978973 2.978967
											CHANNELS 3 Xrotation Yrotation Zrotation
											End Site
											{
												OFFSET -2.494507 5.926697 1.738678
											}
										}
									}
								}
								JOINT newVegas:RightHandIndex1
								{
									OFFSET -18.578728 -0.527832 5.208049
									CHANNELS 3 Xrotation Yrotation Zrotation
									JOINT newVegas:RightHandIndex2
									{
										OFFSET -3.192009 0.000000 0.000000
										CHANNELS 3 Xrotation Yrotation Zrotation
										JOINT newVegas:RightHandIndex3
										{
											OFFSET -3.835129 0.000000 0.000000
											CHANNELS 3 Xrotation Yrotation Zrotation
											End Site
											{
												OFFSET 0.034599 3.816971 0.371180
											}
										}
									}
								}
								JOINT newVegas:RightHandMiddle1
								{
									OFFSET -18.476105 0.000000 0.000000
									CHANNELS 3 Xrotation Yrotation Zrotation
									JOINT newVegas:RightHandMiddle2
									{
										OFFSET -3.324875 0.000000 0.000000
										CHANNELS 3 Xrotation Yrotation Zrotation
										JOINT newVegas:RightHandMiddle3
										{
											OFFSET -4.596550 0.000000 0.000000
											CHANNELS 3 Xrotation Yrotation Zrotation
											End Site
											{
												OFFSET -0.057701 4.578827 0.399218
											}
										}
									}
								}
								JOINT newVegas:RightHandRing1
								{
									OFFSET -17.732719 0.121887 -4.201567
									CHANNELS 3 Xrotation Yrotation Zrotation
									JOINT newVegas:RightHandRing2
									{
										OFFSET -2.733170 0.000000 0.000000
										CHANNELS 3 Xrotation Yrotation Zrotation
										JOINT newVegas:RightHandRing3
										{
											OFFSET -3.178268 0.000000 0.000000
											CHANNELS 3 Xrotation Yrotation Zrotation
											End Site
											{
												OFFSET -0.119102 3.170624 0.185394
											}
										}
									}
								}
								JOINT newVegas:RightHandPinky1
								{
									OFFSET -15.989624 -0.606689 -7.535461
									CHANNELS 3 Xrotation Yrotation Zrotation
									JOINT newVegas:RightHandPinky2
									{
										OFFSET -2.538986 0.000000 0.000000
										CHANNELS 3 Xrotation Yrotation Zrotation
										JOINT newVegas:RightHandPinky3
										{
											OFFSET -2.593102 0.000000 0.000000
											CHANNELS 3 Xrotation Yrotation Zrotation
											End Site
											{
												OFFSET 0.150902 2.584198 0.152708
											}
										}
									}
								}
							}
							JOINT newVegas:Right_CapeC
							{
								OFFSET -15.715958 -8.608795 -6.935905
								CHANNELS 3 Xrotation Yrotation Zrotation
								JOINT newVegas:Right_CapeC1
								{
									OFFSET 0.000000 -8.688499 0.000000
									CHANNELS 3 Xrotation Yrotation Zrotation
									End Site
									{
										OFFSET 0.000000 8.688499 0.000000
									}
								}
							}
							JOINT newVegas:Right_Sleeve
							{
								OFFSET -0.267448 -0.649994 0.577675
								CHANNELS 3 Xrotation Yrotation Zrotation
								End Site
								{
									OFFSET 0.000000 15.991302 0.000000
								}
							}
						}
						JOINT newVegas:Right_CapeA
						{
							OFFSET -5.115540 -8.608795 -10.395824
							CHANNELS 3 Xrotation Yrotation Zrotation
							JOINT newVegas:Right_CapeA1
							{
								OFFSET 0.000000 -8.688499 0.000000
								CHANNELS 3 Xrotation Yrotation Zrotation
								End Site
								{
									OFFSET 0.000000 8.688499 0.000000
								}
							}
						}
						JOINT newVegas:Right_CapeB
						{
							OFFSET -26.118187 -8.608795 -7.079266
							CHANNELS 3 Xrotation Yrotation Zrotation
							JOINT newVegas:Right_CapeB1
							{
								OFFSET 0.000000 -8.688499 0.000000
								CHANNELS 3 Xrotation Yrotation Zrotation
								End Site
								{
									OFFSET 0.000000 8.688499 0.000000
								}
							}
						}
					}
				}
				JOINT newVegas:Left_Collar
				{
					OFFSET 18.625099 8.655502 8.828100
					CHANNELS 3 Xrotation Yrotation Zrotation
					JOINT newVegas:Left_Collar1
					{
						OFFSET 14.783401 10.540405 -1.259500
						CHANNELS 3 Xrotation Yrotation Zrotation
						End Site
						{
							OFFSET 0.000000 18.199875 0.000000
						}
					}
				}
				JOINT newVegas:Collar_Back
				{
					OFFSET 0.000000 15.630707 -20.132601
					CHANNELS 3 Xrotation Yrotation Zrotation
					End Site
					{
						OFFSET 0.000000 22.523010 0.000000
					}
				}
				JOINT newVegas:Left_Peck
				{
					OFFSET 17.239599 -5.132599 25.482599
					CHANNELS 3 Xrotation Yrotation Zrotation
					End Site
					{
						OFFSET 0.000000 22.523010 0.000000
					}
				}
				JOINT newVegas:Right_Peck
				{
					OFFSET -17.239599 -5.132202 25.482599
					CHANNELS 3 Xrotation Yrotation Zrotation
					End Site
					{
						OFFSET 0.000000 22.523010 0.000000
					}
				}
				JOINT newVegas:Right_Collar
				{
					OFFSET -18.625099 8.655792 8.828100
					CHANNELS 3 Xrotation Yrotation Zrotation
					JOINT newVegas:Right_Collar1
					{
						OFFSET -14.783401 10.539993 -1.259500
						CHANNELS 3 Xrotation Yrotation Zrotation
						End Site
						{
							OFFSET 0.000000 18.199631 0.000000
						}
					}
				}
			}
		}
		JOINT newVegas:Belly
		{
			OFFSET 0.000000 -6.540398 9.014299
			CHANNELS 3 Xrotation Yrotation Zrotation
			End Site
			{
				OFFSET 0.000000 11.566666 0.000000
			}
		}
	}
	JOINT newVegas:ElvisFacialAnim_Joint
	{
		OFFSET 1.000000 -95.330101 -8.825800
		CHANNELS 3 Xrotation Yrotation Zrotation
		End Site
		{
			OFFSET 0.000000 35.315800 0.000000
		}
	}
}
MOTION
Frames: 4
Frame Time: 0.016667
-2.880646 83.883858 1.476467 -4.049448 -61.092654 -2.265130 -0.000000 -0.000001 -0.000000 -36.406691 7.385217 34.611577 48.212376 -11.440877 -10.989290 -10.340728 -1.912313 -11.407148 -0.000000 -0.000001 0.000000 -0.000000 0.000001 0.000003 -32.031128 -4.850825 -27.102935 52.023089 4.529864 -7.606388 -19.634953 2.588408 24.753789 0.000000 -0.000002 0.000000 -0.000000 0.000000 0.000003 10.530331 0.393668 -1.697957 7.138507 0.481493 -4.840606 7.341881 0.512811 -4.809181 -4.097634 5.484919 1.441777 -4.097616 5.484927 1.441770 0.000001 -0.000003 0.000000 -4.097411 5.484916 1.441757 -4.097784 5.484921 1.441790 -0.000001 -0.000002 0.000000 0.000001 -0.000003 0.000000 -6.367303 -10.788154 -3.787805 -21.873373 6.546973 -38.737428 3.298288 -47.813612 1.501505 23.526237 -7.456315 15.579778 -1.744001 -11.605051 7.087507 1.175761 16.638472 -3.372739 0.000004 -0.000003 0.000000 13.261897 -0.994757 14.608065 -0.163792 0.326160 -27.178241 -0.000002 -0.000002 -0.000001 8.530534 -0.377332 3.011987 0.228024 0.647988 -25.974475 0.000001 -0.000000 0.000001 6.138292 3.128081 -12.283901 0.030973 0.295609 -26.198137 -0.000001 0.000001 -0.000000 -5.593233 7.672141 -9.955782 0.209717 0.277158 -42.660938 -0.000001 -0.000003 -0.000003 0.000001 -0.000001 -0.000001 0.000001 -0.000001 -0.000001 0.000001 -0.000001 -0.000001 -0.000001 -0.000002 -0.000000 0.000000 -0.000002 -0.000003 -0.000001 -0.000002 -0.000000 -0.000001 -0.000001 -0.000000 -5.546717 11.668541 2.442835 -42.804638 -24.538213 26.405986 34.764201 107.847300 -33.401387 -11.227953 18.802013 -0.896787 -0.426189 14.756540 -9.085191 -0.217042 -13.162711 4.783229 -0.000000 0.000001 -0.000004 19.387721 11.163747 -18.356929 -0.122755 -0.303396 13.011837 -0.000001 -0.000001 0.000002 4.365706 2.482350 -9.836897 0.357445 -0.462554 21.866690 0.000001 0.000000 -0.000001 -6.967538 -10.645246 0.698121 0.113420 -0.065244 21.132221 0.000003 0.000003 -0.000002 -19.392982 -20.192983 0.968378 0.222129 -0.061973 31.820892 0.000003 -0.000000 -0.000000 0.000000 -0.000001 0.000000 0.000001 -0.000000 -0.000001 0.000000 -0.000001 0.000000 -0.000002 0.000003 0.000001 -0.000002 0.000004 -0.000000 -0.000002 0.000003 0.000001 -0.000001 0.000004 0.000001 0.000001 -0.000000 0.000001 0.000001 -0.000000 0.000001 0.000001 -0.000000 0.000001 0.000001 -0.000000 0.000001 0.000001 -0.000000 0.000001 0.000001 -0.000000 0.000001 0.000001 -0.000000 0.000001 -0.000000 -0.000002 0.000000 -0.000000 -0.000001 -0.000000 
-2.905081 83.918755 1.491271 -3.886770 -60.870461 -1.886430 0.000000 -0.000001 -0.000000 -36.143374 7.157897 33.975536 47.914771 -10.970589 -10.887380 -10.187935 -1.904828 -11.588247 0.000000 0.000001 0.000000 0.000001 0.000000 0.000001 -32.092928 -4.938222 -27.470893 52.132068 4.658556 -7.606475 -19.775153 2.482389 24.734079 0.000000 -0.000001 0.000000 -0.000000 0.000000 -0.000001 10.590707 0.391683 -1.626510 7.257248 0.468908 -4.778354 7.460063 0.466588 -4.741543 -4.026589 5.475992 1.430843 -4.026591 5.475984 1.430839 0.000001 -0.000002 -0.000000 -4.026588 5.475987 1.430840 -4.026589 5.476008 1.430839 -0.000000 -0.000003 0.000001 0.000001 -0.000002 -0.000000 -6.418703 -10.815711 -4.148094 -21.457116 6.690774 -38.715097 4.406719 -47.475634 2.146149 23.256369 -7.467375 15.380478 -1.783019 -11.815753 7.005576 1.104988 16.445759 -3.450763 0.000003 -0.000002 0.000002 13.259811 -0.994081 14.834546 -0.164113 0.325771 -26.951597 -0.000000 -0.000002 0.000001 8.532566 -0.380249 3.238585 0.227733 0.647175 -25.747843 0.000001 0.000000 -0.000001 6.140721 3.125681 -12.057601 0.030070 0.294097 -25.971507 -0.000003 0.000001 -0.000001 -5.598549 7.673624 -9.728872 0.208909 0.276890 -42.434265 -0.000001 -0.000002 -0.000002 0.000003 -0.000003 -0.000001 0.000003 -0.000003 -0.000001 0.000002 -0.000003 -0.000001 -0.000000 -0.000002 0.000007 0.000000 -0.000002 0.000004 -0.000000 -0.000002 0.000007 -0.000001 -0.000002 0.000007 -5.573484 11.590787 2.601377 -43.195182 -24.472073 26.216966 33.970178 108.583048 -32.512254 -11.201339 19.600882 -1.776043 -0.422805 14.740489 -9.092057 -0.211415 -13.177341 4.776917 -0.000000 0.000000 -0.000000 19.389082 11.163737 -18.339755 -0.122770 -0.303269 13.029339 0.000001 0.000001 -0.000003 4.365200 2.482201 -9.819366 0.357979 -0.462937 21.884165 -0.000000 -0.000002 -0.000001 -6.967632 -10.645395 0.715596 0.113407 -0.065607 21.149676 -0.000001 0.000000 0.000004 -19.395277 -20.194267 0.984128 0.222204 -0.062345 31.838493 -0.000002 0.000000 -0.000003 0.000001 0.000001 0.000000 -0.000000 -0.000002 0.000000 0.000001 0.000000 -0.000002 -0.000000 0.000003 0.000001 -0.000000 0.000003 0.000001 -0.000000 0.000003 0.000001 -0.000000 0.000003 0.000003 -0.000002 -0.000001 0.000001 -0.000002 -0.000001 0.000001 -0.000002 -0.000001 0.000001 -0.000002 -0.000001 0.000001 -0.000002 -0.000001 0.000001 -0.000002 -0.000001 0.000001 -0.000002 -0.000001 0.000001 0.000000 0.000000 0.000000 0.000000 -0.000001 -0.000000 
-2.939913 83.952026 1.513560 -3.683771 -60.611549 -1.503284 0.000000 -0.000000 -0.000000 -35.929377 6.887301 33.370115 47.635426 -10.532447 -10.792509 -10.036863 -1.899046 -11.758866 -0.000000 0.000001 0.000000 -0.000001 -0.000000 0.000000 -32.136805 -5.102638 -27.781769 52.354503 5.879302 -7.555818 -19.909185 1.344153 24.237341 0.000000 0.000000 -0.000000 0.000001 -0.000002 -0.000001 10.639622 0.384928 -1.577187 7.369346 0.453069 -4.726277 7.573425 0.423515 -4.679432 -3.965856 5.468535 1.432835 -3.965870 5.468549 1.432834 -0.000001 0.000001 -0.000001 -3.965860 5.468543 1.432835 -3.965793 5.468515 1.432832 0.000000 -0.000001 0.000000 -0.000001 0.000001 -0.000001 -6.440482 -10.884639 -4.337065 -21.175186 6.913550 -38.724960 5.577229 -47.056660 2.897907 23.026052 -7.470506 15.124202 -1.779681 -11.806509 7.009869 1.107489 16.455736 -3.449351 0.000003 -0.000000 -0.000005 13.258854 -0.994115 14.824104 -0.164107 0.325396 -26.962001 -0.000001 -0.000002 -0.000001 8.531227 -0.380757 3.228207 0.228456 0.647212 -25.758206 0.000001 -0.000002 0.000003 6.140634 3.125774 -12.067781 0.029523 0.294130 -25.981881 -0.000001 0.000001 0.000000 -5.601394 7.673613 -9.738872 0.208909 0.277387 -42.444660 -0.000000 0.000000 -0.000001 0.000001 -0.000001 0.000001 0.000001 -0.000001 0.000001 0.000001 -0.000002 0.000001 0.000002 -0.000001 0.000001 0.000002 -0.000000 -0.000003 0.000002 -0.000001 0.000001 0.000001 -0.000000 0.000001 -5.599831 11.504894 2.762670 -43.512728 -24.472590 26.085462 33.347231 109.244525 -31.801094 -11.146619 20.342320 -2.590670 -0.415612 14.692855 -9.110332 -0.194285 -13.219769 4.757883 0.000001 -0.000005 -0.000001 19.390134 11.163703 -18.289151 -0.122704 -0.303305 13.080228 0.000001 -0.000001 -0.000001 4.364115 2.481762 -9.768452 0.358291 -0.463189 21.935047 0.000000 -0.000001 -0.000001 -6.968103 -10.645752 0.766207 0.113357 -0.065982 21.200564 -0.000001 0.000001 0.000001 -19.396684 -20.195428 1.033486 0.222224 -0.062843 31.889289 0.000001 0.000003 0.000000 0.000001 -0.000000 0.000002 0.000002 -0.000002 0.000000 0.000001 -0.000000 0.000002 -0.000001 0.000003 -0.000003 -0.000001 0.000003 -0.000003 -0.000001 0.000003 -0.000003 -0.000001 0.000003 -0.000001 -0.000000 0.000002 -0.000000 -0.000000 0.000002 -0.000000 -0.000000 0.000002 -0.000000 -0.000000 0.000002 -0.000000 -0.000000 0.000002 -0.000000 -0.000000 0.000002 -0.000000 -0.000000 0.000002 -0.000000 0.000000 -0.000002 0.000000 0.000000 -0.000000 -0.000000 
-2.987006 83.978073 1.541927 -3.394338 -60.357323 -1.077577 -0.000000 -0.000000 0.000000 -35.795328 6.617381 32.834382 47.387900 -10.148307 -10.709399 -9.904536 -1.893754 -11.913125 -0.000000 0.000002 0.000000 -0.000001 0.000001 0.000001 -32.200749 -5.258471 -28.099229 52.403510 5.911499 -7.557938 -20.060776 1.304964 24.251888 0.000000 -0.000001 0.000000 -0.000002 0.000002 -0.000000 10.688152 0.374164 -1.550787 7.474955 0.433639 -4.690575 7.681307 0.379670 -4.629607 -3.915531 5.462004 1.455357 -3.915546 5.461999 1.455357 -0.000000 0.000001 -0.000001 -3.915541 5.462026 1.455349 -3.915537 5.461981 1.455359 0.000000 -0.000001 -0.000000 -0.000000 0.000001 -0.000001 -6.435433 -10.967016 -4.381018 -20.957483 7.136087 -38.771033 6.404536 -46.581330 3.444880 22.835395 -7.451204 14.856005 -1.773512 -11.778472 7.021340 1.117309 16.481820 -3.439127 0.000001 -0.000004 -0.000003 13.258217 -0.994209 14.793619 -0.164053 0.325091 -26.992464 0.000002 0.000000 -0.000001 8.530105 -0.380827 3.197765 0.228937 0.647364 -25.788708 0.000001 -0.000002 -0.000003 6.140292 3.126105 -12.098272 0.029280 0.294321 -26.012328 0.000001 -0.000000 -0.000001 -5.601558 7.673752 -9.769272 0.209022 0.278132 -42.475147 -0.000001 -0.000003 -0.000001 0.000001 0.000001 -0.000000 0.000001 0.000001 -0.000000 0.000001 0.000001 0.000000 -0.000001 -0.000002 0.000003 -0.000000 -0.000002 0.000000 -0.000001 -0.000002 0.000003 -0.000001 -0.000001 0.000003 -5.626213 11.414994 2.928154 -43.757265 -24.499846 25.977052 33.032243 109.869508 -31.394736 -11.032537 21.015230 -3.371329 -0.404256 14.616195 -9.139757 -0.167452 -13.288495 4.728264 0.000001 0.000001 -0.000000 19.390974 11.163710 -18.207638 -0.122635 -0.303389 13.161989 0.000000 0.000001 -0.000000 4.362488 2.481072 -9.686597 0.358537 -0.463433 22.016874 0.000001 -0.000001 0.000003 -6.968827 -10.646403 0.847667 0.113335 -0.066683 21.282308 0.000001 0.000001 -0.000002 -19.397992 -20.196371 1.113742 0.222308 -0.063541 31.971040 -0.000003 -0.000002 0.000000 0.000001 0.000003 0.000000 -0.000000 0.000004 -0.000003 0.000001 0.000003 0.000000 -0.000000 -0.000003 -0.000003 -0.000000 -0.000002 -0.000003 -0.000000 -0.000003 -0.000003 -0.000000 -0.000002 -0.000002 0.000001 0.000001 0.000001 0.000001 0.000001 0.000001 0.000001 0.000001 0.000001 0.000001 0.000001 0.000001 0.000001 0.000001 0.000001 0.000001 0.000001 0.000001 0.000001 0.000001 0.000001 0.000001 -0.000001 0.000001 -0.000000 -0.000000 0.000000 
